<?xml version="1.0" standalone="no"?>
<!DOCTYPE svg PUBLIC "-//W3C//DTD SVG 20010904//EN"
 "http://www.w3.org/TR/2001/REC-SVG-20010904/DTD/svg10.dtd">
<svg version="1.0" xmlns="http://www.w3.org/2000/svg"
 width="234.000000pt" height="234.000000pt" viewBox="0 0 234.000000 234.000000"
 preserveAspectRatio="xMidYMid meet">
<metadata>
Created by potrace 1.14, written by Peter Selinger 2001-2017
</metadata>
<g transform="translate(0.000000,234.000000) scale(0.100000,-0.100000)"
fill="#000000" stroke="none">
<path d="M1083 2202 c-29 -2 -54 -6 -54 -10 -1 -4 -3 -68 -4 -142 -2 -74 -4
-138 -4 -142 -1 -5 -9 -8 -19 -8 -11 0 -44 -9 -75 -19 l-57 -20 -25 37 c-14
20 -25 42 -25 49 0 7 -3 13 -7 13 -5 0 -21 26 -38 58 -48 93 -52 95 -110 68
-72 -33 -195 -115 -195 -129 1 -7 14 -34 30 -62 67 -116 91 -161 93 -176 2
-16 -87 -119 -103 -119 -8 0 -135 71 -223 124 -16 9 -23 5 -47 -23 -38 -44
-121 -207 -114 -223 3 -7 54 -42 114 -77 61 -35 112 -67 115 -71 2 -4 -4 -37
-15 -74 -10 -36 -18 -70 -17 -74 1 -4 -54 -8 -123 -9 -187 -4 -170 11 -170
-152 0 -99 4 -141 13 -148 6 -5 68 -8 137 -7 71 1 130 -3 138 -9 6 -5 12 -20
12 -33 0 -47 24 -35 116 60 88 90 94 99 95 139 2 132 34 241 102 346 58 90 94
130 162 181 179 133 393 164 613 87 134 -47 282 -182 350 -320 23 -47 42 -94
42 -105 0 -10 3 -22 7 -26 9 -9 11 -23 19 -125 l7 -85 94 -94 c55 -56 98 -91
103 -86 5 5 10 22 12 39 l3 29 138 2 c76 0 142 5 148 11 6 6 8 67 7 149 l-3
139 -145 5 -145 5 -3 25 c-2 14 -10 47 -18 74 -7 27 -11 52 -8 57 3 5 38 28
77 50 161 92 158 89 151 112 -11 37 -74 153 -105 197 -23 32 -34 40 -50 35
-19 -6 -117 -63 -129 -75 -10 -10 -88 -50 -98 -50 -11 0 -104 93 -110 110 -3
7 24 57 111 211 18 32 19 38 7 51 -42 41 -225 142 -241 133 -5 -4 -21 -27 -35
-53 -31 -55 -106 -186 -109 -189 0 -2 -37 8 -81 22 l-79 24 1 128 c0 70 -1
136 -4 145 -3 14 -20 17 -90 20 -48 2 -111 2 -139 0z"/>
<path d="M1138 1506 c-246 -251 -942 -957 -966 -979 -17 -17 -32 -38 -32 -47
0 -19 74 -144 105 -177 l21 -23 156 157 c86 87 289 293 452 458 l296 300 296
-300 c163 -165 367 -371 453 -458 l156 -158 25 30 c35 41 100 152 100 170 0 8
-108 122 -239 255 -132 133 -297 300 -368 373 -257 265 -415 423 -424 423 -4
0 -18 -11 -31 -24z"/>
<path d="M960 785 l0 -105 105 0 105 0 0 105 0 105 -105 0 -105 0 0 -105z"/>
<path d="M1180 785 l0 -105 105 0 105 0 0 105 0 105 -105 0 -105 0 0 -105z"/>
<path d="M960 565 l0 -105 105 0 105 0 0 105 0 105 -105 0 -105 0 0 -105z"/>
<path d="M1180 565 l0 -105 105 0 105 0 0 105 0 105 -105 0 -105 0 0 -105z"/>
<path d="M590 505 l-84 -85 39 -41 c105 -108 261 -196 413 -235 295 -75 627
19 837 235 l39 41 -84 85 -84 84 -47 -44 c-72 -67 -149 -112 -251 -146 -224
-75 -470 -20 -647 146 l-47 44 -84 -84z"/>
</g>
</svg>
