<?xml version="1.0" encoding="utf-8"?>
<!DOCTYPE svg PUBLIC "-//W3C//DTD SVG 1.0//EN" "http://www.w3.org/TR/2001/REC-SVG-20010904/DTD/svg10.dtd">
<svg version="1.0" xmlns="http://www.w3.org/2000/svg" width="234px" height="209px" viewBox="0 0 234 209" preserveAspectRatio="xMidYMid meet">
 <g fill="#ff7b29">
  <path d="M23.3 188.3 c-3.9 -5 -9.7 -15.3 -9 -16 0.3 -0.3 16.7 -16.9 36.4 -37 19.7 -20.1 42.7 -43.5 51.1 -52 l15.3 -15.5 14.2 14.5 c7.8 7.9 30.6 31.1 50.7 51.6 20 20.4 36.8 37.7 37.1 38.4 0.8 1.4 -4.6 11.5 -9 16.7 l-2.9 3.5 -25.8 -26.3 c-14.3 -14.5 -34.5 -35.2 -45.1 -46 l-19.2 -19.7 -16.3 16.6 c-9 9.1 -29.2 29.7 -45 45.7 -15.7 16.1 -28.8 29.2 -29.1 29.2 -0.3 0 -1.8 -1.7 -3.4 -3.7z"/>
  <path d="M31.6 139.4 c-0.3 -0.9 -0.6 -2.4 -0.6 -3.5 0 -1.8 -0.9 -1.9 -14 -1.9 l-14 0 -1 -2.6 c-1.1 -2.8 -1.3 -18.4 -0.4 -23.2 l0.6 -3.1 14 -0.3 14.1 -0.3 1.9 -7.4 c1 -4 2 -7.8 2.1 -8.3 0.2 -1 -16.2 -11.7 -21 -13.8 -3.1 -1.3 -2.9 -3.1 0.9 -10.4 3.4 -6.3 9.8 -16.6 10.5 -16.6 0.2 0 2 1.1 4.1 2.3 2 1.3 7.5 4.5 12.1 7.1 l8.3 4.8 6 -6.2 5.9 -6.2 -2.2 -3.6 c-1.2 -2.1 -3.1 -5.3 -4.1 -7.2 -1.1 -1.9 -3.3 -5.8 -4.9 -8.6 -2.7 -4.8 -2.8 -5.2 -1.1 -6.6 3 -2.7 20.6 -12.8 22.3 -12.8 0.8 0 2.3 1.5 3.2 3.3 2.5 4.7 9 16 10.7 18.6 l1.5 2.2 8.3 -2.2 8.2 -2.2 0 -14.2 c0 -13.9 0.1 -14.3 2.3 -14.9 2.9 -0.8 17.2 -0.8 22 0 l3.7 0.7 0 14.3 0 14.4 2.8 0.6 c1.5 0.3 5.1 1.2 8 2 2.9 0.8 5.6 1.2 6.1 1 0.4 -0.3 3.6 -5.6 7.1 -11.8 3.5 -6.2 6.4 -11.5 6.6 -11.7 1.1 -1.3 14 5.5 22.1 11.6 l3.1 2.4 -4 7.2 c-2.3 4 -5.4 9.6 -7.1 12.6 l-3 5.3 6.1 6 6 6.1 6.9 -3.8 c3.7 -2.1 8.8 -5.1 11.2 -6.7 2.5 -1.5 5.2 -2.8 6 -2.8 0.9 0 2.6 1.6 3.9 3.6 3.9 6 10.2 18.2 10.2 19.6 0 0.8 -5.3 4.6 -11.7 8.5 -6.5 3.9 -11.7 7.5 -11.6 8.1 0.1 0.5 1.1 4.3 2.1 8.3 l1.9 7.4 14.1 0.3 14.1 0.3 0.7 4.5 c0.8 5.3 0.1 21.4 -1 23.2 -0.5 0.8 -4.7 1.2 -14.7 1.2 -13.7 0 -13.9 0 -13.9 2.3 0 1.2 -0.5 2.9 -1 3.7 -0.8 1.2 -2.7 -0.2 -10 -7.5 -8.7 -8.6 -9 -9.1 -9 -13.5 -0.1 -11.5 -6.4 -30.5 -13.1 -39.3 -9.2 -12 -25.2 -22.7 -38.8 -25.7 -11.9 -2.8 -30.3 -0.8 -41.1 4.3 -5.7 2.6 -14.8 9.3 -19.6 14.3 -10.7 11.2 -16.5 24 -18.5 40.5 l-1.2 10.4 -8.6 8.8 c-4.7 4.8 -8.9 8.7 -9.2 8.7 -0.4 0 -1 -0.7 -1.3 -1.6z"/>
 </g>
 <g fill="#31c3e0">
  <path d="M95.4 206.6 c-14.9 -3.9 -30.5 -12.9 -40.9 -23.5 l-3.9 -4.1 8.4 -8.5 8.4 -8.4 4.7 4.4 c12.7 11.9 27.8 17.8 45.4 17.8 8.5 -0.1 11.4 -0.5 19.3 -3.2 10.2 -3.4 17.9 -7.9 25.1 -14.6 l4.7 -4.4 8.4 8.4 8.4 8.5 -3.9 4.1 c-10.5 10.8 -26.1 19.6 -41.3 23.5 -13.1 3.3 -29.8 3.3 -42.8 0z"/>
  <path d="M96 164.5 l0 -10.5 10.5 0 10.5 0 0 10.5 0 10.5 -10.5 0 -10.5 0 0 -10.5z"/>
  <path d="M118 164.5 l0 -10.5 10.5 0 10.5 0 0 10.5 0 10.5 -10.5 0 -10.5 0 0 -10.5z"/>
  <path d="M96 142.5 l0 -10.5 10.5 0 10.5 0 0 10.5 0 10.5 -10.5 0 -10.5 0 0 -10.5z"/>
  <path d="M118 142.5 l0 -10.5 10.5 0 10.5 0 0 10.5 0 10.5 -10.5 0 -10.5 0 0 -10.5z"/>
 </g>
</svg>