<?xml version="1.0" standalone="no"?>
<!DOCTYPE svg PUBLIC "-//W3C//DTD SVG 20010904//EN"
 "http://www.w3.org/TR/2001/REC-SVG-20010904/DTD/svg10.dtd">
<svg version="1.0" xmlns="http://www.w3.org/2000/svg"
 width="702.000000pt" height="702.000000pt" viewBox="0 0 702.000000 702.000000"
 preserveAspectRatio="xMidYMid meet">
<metadata>
Created by potrace 1.14, written by Peter Selinger 2001-2017
</metadata>
<g transform="translate(0.000000,702.000000) scale(0.100000,-0.100000)"
fill="#000000" stroke="none">
<path d="M3202 6599 c-75 -13 -90 -23 -100 -72 -5 -23 -10 -213 -11 -422 -1
-262 -5 -381 -13 -386 -6 -4 -117 -35 -246 -69 l-235 -62 -18 23 c-22 28 -187
304 -221 369 -13 25 -31 56 -40 70 -9 14 -36 63 -61 109 -55 104 -98 153 -130
148 -60 -9 -493 -254 -635 -360 -67 -51 -72 -70 -34 -144 27 -54 38 -73 93
-170 12 -21 33 -58 47 -83 64 -116 148 -262 189 -327 24 -40 42 -77 39 -81
-14 -24 -343 -362 -351 -362 -5 0 -126 66 -165 90 -54 34 -151 90 -154 90 -3
0 -95 54 -206 119 -111 66 -207 118 -214 115 -10 -4 -59 -75 -162 -234 -45
-70 -170 -296 -193 -350 -13 -30 -28 -64 -33 -75 -4 -11 -10 -35 -13 -54 -5
-45 20 -67 160 -143 127 -69 467 -292 508 -333 15 -16 25 -35 23 -44 -7 -21
-116 -450 -116 -454 0 -1 -71 -4 -157 -6 -87 -1 -214 -4 -283 -6 -69 -2 -183
-4 -255 -4 -72 -1 -135 -5 -141 -9 -12 -7 -19 -36 -34 -147 -9 -63 -5 -501 5
-570 6 -40 33 -124 44 -137 3 -3 184 -8 401 -10 433 -3 440 -4 440 -59 0 -41
18 -110 35 -133 14 -18 16 -18 40 -2 14 9 115 106 223 215 294 295 291 292
296 331 5 37 23 187 30 255 27 257 96 503 203 725 156 323 389 588 698 795 33
22 62 42 65 45 18 18 277 150 289 148 3 -1 13 2 21 5 71 28 296 80 405 92 28
3 66 8 85 11 62 10 362 11 440 3 138 -16 321 -63 430 -111 353 -155 667 -390
885 -663 138 -173 267 -461 349 -775 43 -167 54 -236 62 -385 3 -60 10 -126
16 -145 16 -53 89 -138 270 -316 167 -165 238 -224 268 -224 22 0 40 42 49
112 6 50 8 54 41 64 22 7 131 12 290 13 424 3 523 12 534 49 30 102 43 548 20
706 -8 55 -17 103 -21 107 -7 6 -450 19 -765 22 -43 0 -78 2 -78 4 0 2 -27
107 -59 234 -33 127 -58 236 -55 242 6 17 92 78 237 169 193 122 360 231 386
253 75 62 74 61 61 102 -18 55 -158 325 -240 461 -69 117 -125 186 -160 197
-23 7 -107 -26 -176 -70 -30 -19 -57 -35 -61 -35 -3 0 -14 -6 -22 -14 -19 -16
-272 -164 -392 -229 l-85 -46 -182 182 -181 182 54 94 c30 51 55 95 55 96 0 2
26 50 58 107 33 57 70 123 84 148 14 25 35 63 48 85 12 22 35 63 50 90 15 28
37 66 49 85 11 19 21 38 21 42 0 3 -28 29 -62 56 -195 154 -570 364 -656 366
-39 1 -41 -1 -129 -164 -22 -41 -64 -115 -92 -163 -28 -49 -51 -90 -51 -92 0
-2 -38 -65 -84 -142 l-84 -138 -47 2 c-25 1 -128 22 -228 47 -100 24 -194 47
-209 51 l-28 5 0 429 0 429 -27 7 c-16 4 -41 9 -58 12 -16 2 -41 7 -55 10 -43
9 -532 11 -588 2z"/>
<path d="M3175 4264 c-471 -478 -1406 -1430 -1645 -1674 -339 -346 -1058
-1077 -1077 -1094 -13 -11 -23 -29 -23 -39 0 -53 225 -422 324 -532 l46 -50
457 460 c252 254 672 678 933 944 626 637 715 727 1044 1062 l279 283 191
-195 c105 -108 344 -352 531 -544 530 -542 536 -548 981 -1001 232 -236 476
-485 543 -554 296 -302 454 -460 462 -460 5 0 9 3 9 8 0 4 13 21 28 38 123
142 255 354 303 488 19 55 16 68 -29 115 -86 90 -435 452 -502 521 -132 136
-780 797 -930 950 -74 75 -331 337 -570 580 -629 640 -699 712 -864 879 -82
83 -151 151 -155 151 -3 0 -154 -151 -336 -336z"/>
<path d="M2880 2365 l0 -315 315 0 315 0 0 315 0 315 -315 0 -315 0 0 -315z"/>
<path d="M3540 2365 l0 -315 315 0 315 0 0 315 0 315 -315 0 -315 0 0 -315z"/>
<path d="M2880 1705 l0 -315 315 0 315 0 0 315 0 315 -315 0 -315 0 0 -315z"/>
<path d="M3540 1705 l0 -315 315 0 315 0 0 315 0 315 -315 0 -315 0 0 -315z"/>
<path d="M1770 1525 l-253 -253 59 -63 c32 -35 64 -68 69 -74 6 -5 48 -44 95
-86 265 -236 584 -424 930 -546 166 -59 259 -81 505 -119 17 -3 147 -7 290 -9
212 -3 285 0 397 15 403 55 779 200 1138 440 165 111 281 209 450 384 l54 56
-249 250 c-137 137 -253 250 -258 250 -8 0 -55 -42 -146 -130 -22 -22 -112
-97 -171 -143 -35 -28 -181 -117 -250 -153 -141 -74 -419 -176 -550 -203 -30
-6 -68 -13 -85 -17 -87 -17 -476 -11 -589 10 -12 2 -37 7 -56 10 -19 3 -46 8
-60 10 -41 7 -170 44 -233 65 -69 24 -230 92 -237 100 -3 3 -30 19 -60 35 -64
34 -186 114 -250 165 -67 54 -240 209 -271 242 -14 17 -33 0 -269 -236z"/>
</g>
</svg>
